HIERARCHY
ROOT Hips
{
	OFFSET	0.00	0.00	0.00
	CHANNELS 6 Xposition Yposition Zposition Zrotation Xrotation Yrotation
	JOINT LeftUpLeg
	{
		OFFSET	 0.126116	-0.065224	 0.014019
		CHANNELS 3 Zrotation Xrotation Yrotation
		JOINT LeftLeg
		{
			OFFSET	 0.000000	 0.569914	 0.000000
			CHANNELS 3 Zrotation Xrotation Yrotation
			JOINT LeftFoot
			{
				OFFSET	 0.000000	 0.544423	 0.000000
				CHANNELS 3 Zrotation Xrotation Yrotation
				JOINT LeftToeBase
				{
					OFFSET	 0.000000	 0.207117	 0.000000
					CHANNELS 3 Zrotation Xrotation Yrotation
					End Site
					{
						OFFSET	 0.000000	 0.207117	 0.000000
					}
				}
			}
		}
	}
	JOINT RightUpLeg
	{
		OFFSET	-0.124023	-0.065224	 0.008373
		CHANNELS 3 Zrotation Xrotation Yrotation
		JOINT RightLeg
		{
			OFFSET	 0.000000	 0.570047	 0.000000
			CHANNELS 3 Zrotation Xrotation Yrotation
			JOINT RightFoot
			{
				OFFSET	 0.000000	 0.544354	 0.000000
				CHANNELS 3 Zrotation Xrotation Yrotation
				JOINT RightToeBase
				{
					OFFSET	 0.000000	 0.207540	 0.000000
					CHANNELS 3 Zrotation Xrotation Yrotation
					End Site
					{
						OFFSET	 0.000000	 0.207540	 0.000000
					}
				}
			}
		}
	}
	JOINT Spine
	{
		OFFSET	 0.000184	 0.117403	 0.007763
		CHANNELS 3 Zrotation Xrotation Yrotation
		JOINT Spine1
		{
			OFFSET	 0.000000	 0.137269	 0.000000
			CHANNELS 3 Zrotation Xrotation Yrotation
			JOINT Spine2
			{
				OFFSET	 0.000000	 0.156879	 0.000000
				CHANNELS 3 Zrotation Xrotation Yrotation
				JOINT LeftShoulder
				{
					OFFSET	 0.080501	 0.160143	 0.002496
					CHANNELS 3 Zrotation Xrotation Yrotation
					JOINT LeftArm
					{
						OFFSET	 0.000000	 0.164363	 0.000000
						CHANNELS 3 Zrotation Xrotation Yrotation
						JOINT LeftForeArm
						{
							OFFSET	 0.000000	 0.364576	 0.000000
							CHANNELS 3 Zrotation Xrotation Yrotation
							JOINT LeftHand
							{
								OFFSET	 0.000000	 0.360812	 0.000000
								CHANNELS 3 Zrotation Xrotation Yrotation
								JOINT LeftHandIndex1
								{
									OFFSET	 0.000000	 0.086006	 0.000000
									CHANNELS 3 Zrotation Xrotation Yrotation
									JOINT LeftHandIndex2
									{
										OFFSET	 0.000000	 0.047237	 0.000000
										CHANNELS 3 Zrotation Xrotation Yrotation
										JOINT LeftHandIndex3
										{
											OFFSET	-0.004284	 0.038165	 0.000551
											CHANNELS 3 Zrotation Xrotation Yrotation
											End Site
											{
												OFFSET	-0.004284	 0.038165	 0.000551
											}
										}
									}
								}
							}
						}
					}
				}
				JOINT Neck
				{
					OFFSET	 0.000000	 0.176489	 0.000000
					CHANNELS 3 Zrotation Xrotation Yrotation
					JOINT Head
					{
						OFFSET	 0.000000	 0.077941	 0.001747
						CHANNELS 3 Zrotation Xrotation Yrotation
						End Site
						{
							OFFSET	 0.000000	 0.077941	 0.001747
						}
					}
				}
				JOINT RightShoulder
				{
					OFFSET	-0.080363	 0.159706	-0.000306
					CHANNELS 3 Zrotation Xrotation Yrotation
					JOINT RightArm
					{
						OFFSET	 0.000000	 0.164196	 0.000000
						CHANNELS 3 Zrotation Xrotation Yrotation
						JOINT RightForeArm
						{
							OFFSET	 0.000000	 0.365611	 0.000000
							CHANNELS 3 Zrotation Xrotation Yrotation
							JOINT RightHand
							{
								OFFSET	 0.000000	 0.360648	 0.000000
								CHANNELS 3 Zrotation Xrotation Yrotation
								JOINT RightHandIndex1
								{
									OFFSET	 0.000000	 0.069977	 0.000000
									CHANNELS 3 Zrotation Xrotation Yrotation
									JOINT RightHandIndex2
									{
										OFFSET	 0.000000	 0.052305	 0.000000
										CHANNELS 3 Zrotation Xrotation Yrotation
										JOINT RightHandIndex3
										{
											OFFSET	 0.009002	 0.042196	 0.000782
											CHANNELS 3 Zrotation Xrotation Yrotation
											End Site
											{
												OFFSET	 0.009002	 0.042196	 0.000782
											}
										}
									}
								}
							}
						}
					}
				}
			}
		}
	}
}
MOTION
Frames:    7
Frame Time: 0.03333334
-0.096611	 1.238661	-0.064219	 10.337700	-7.164250	-159.810400	 174.855600	 33.947950	 30.762330	 12.646710	-39.432880	 14.722040	 17.288620	 82.180330	-24.762360	 1.151341	 26.544510	-2.655434	-173.523600	 10.235520	 14.119790	-1.937517	-24.048800	 8.965576	-0.808671	 69.915860	-0.809261	-2.107139	 38.085460	 3.122507	-5.990860	 6.435975	 29.951500	-11.688820	 7.849127	 12.300650	 9.005482	-5.364357	-19.588420	-103.236200	 2.712777	 93.106990	 42.046690	 46.450650	-2.155087	 28.801000	-1.042882	-10.118000	 17.801040	 20.448470	 65.989110	 3.876528	 55.120880	-2.222841	-8.804217	 61.574310	 9.120155	 6.613348	 34.408830	 0.048734	 3.958895	-12.099880	-3.896021	 5.258558	-9.778524	-15.935990	 103.046200	 27.730570	-97.893920	-59.646850	 38.311050	 6.336921	-12.733030	-0.203233	 10.397770	 32.031930	-3.588292	 4.986639	-4.895087	 13.078250	-0.625924	 14.075740	 36.445810	-8.837344	-8.484625	 29.623940	-1.614888
-0.098370	 1.239040	-0.062519	 9.755079	-7.296811	-160.058800	 174.442100	 33.635540	 30.306960	 12.356750	-38.792710	 14.564480	 17.661310	 81.777390	-24.933210	 1.129774	 26.251260	-2.646989	-174.077900	 9.703054	 14.700600	-1.848917	-23.066930	 10.191310	 1.797643	 71.430710	-4.277543	-1.910828	 35.943810	 3.012654	-5.925840	 6.535916	 29.577150	-11.514690	 7.394014	 11.990660	 9.013831	-5.204966	-19.397410	-103.698700	 2.606099	 93.048480	 39.500490	 48.688670	-1.458978	 24.451820	-0.832674	-10.469420	 16.723760	 17.383930	 71.523740	 3.895562	 55.100040	-2.236910	-8.789333	 61.512770	 9.100159	 6.615348	 34.451400	 0.048516	 4.067116	-11.891210	-3.869117	 4.817223	-9.666230	-15.693910	 103.555500	 27.227340	-97.898350	-54.541000	 40.656590	 3.876905	-12.948280	-0.204451	 10.646240	 26.651170	-5.506623	-1.043835	-4.899827	 13.070840	-0.626268	 14.086440	 36.511210	-8.857752	-8.484266	 29.653610	-1.616997
-0.099914	 1.239203	-0.060923	 8.957904	-7.122486	-161.377500	 174.514700	 32.871900	 28.807430	 12.186700	-38.411560	 14.312970	 16.993750	 81.461990	-24.019920	 1.125987	 26.199620	-2.645516	-174.665800	 9.465695	 13.816280	-1.862535	-23.218650	 10.840250	 3.841867	 72.511980	-6.553936	-1.831261	 35.042240	 2.969971	-5.603094	 6.506397	 29.043380	-11.480740	 7.284473	 11.960460	 9.074874	-5.255364	-18.991570	-103.980500	 2.530613	 92.979070	 39.604520	 51.041350	-3.799337	 16.376700	-0.432530	-10.858300	 19.273450	 15.182240	 72.822340	 3.898046	 55.120700	-2.239328	-8.772038	 61.440800	 9.076884	 6.618306	 34.514260	 0.048186	 4.116238	-11.483350	-3.735293	 4.253028	-9.468726	-14.983040	 104.297400	 26.610050	-97.924750	-48.537330	 43.154310	 2.224134	-13.154190	-0.205516	 10.887350	 21.072390	-8.601267	-5.193918	-4.879506	 12.957030	-0.617913	 14.080510	 36.474980	-8.846447	-8.484868	 29.603790	-1.613454
-0.102090	 1.240268	-0.059755	 7.975460	-6.686210	-163.547500	 174.972200	 31.594260	 26.482260	 11.979210	-37.940540	 13.906020	 15.904740	 81.046230	-22.581160	 1.135306	 26.326620	-2.649144	-175.451300	 9.689116	 11.813320	-1.993459	-24.661300	 11.003210	 5.406270	 73.415410	-7.792591	-1.832308	 35.054230	 2.970528	-5.126872	 6.394484	 28.274280	-11.552510	 7.407030	 12.012890	 9.185431	-5.416176	-18.419590	-104.129800	 2.477856	 92.901670	 36.075210	 53.984470	-4.134649	 13.338190	-0.271900	-11.136050	 20.237840	 13.580010	 70.847600	 3.888280	 55.172180	-2.233122	-8.752941	 61.360860	 9.051143	 6.621986	 34.592370	 0.047769	 4.120224	-10.926420	-3.521938	 3.605813	-9.212308	-13.921950	 105.211000	 25.904530	-97.960190	-38.587220	 44.575320	-1.033208	-17.178730	-0.351712	 11.083090	 16.508630	-11.032220	-8.942130	-4.840538	 12.764020	-0.602989	 14.062320	 36.363380	-8.811684	-8.486169	 29.494910	-1.605725
-0.101049	 1.241019	-0.057611	 6.952976	-6.028171	-165.713700	 175.543000	 30.192600	 24.196620	 11.744760	-37.400660	 13.488230	 14.740470	 80.591240	-21.235100	 1.144243	 26.448170	-2.652641	-176.097500	 9.802835	 9.904722	-2.125478	-26.082820	 11.152400	 6.984406	 74.232470	-9.237777	-1.833310	 35.065710	 2.971060	-4.611786	 6.488363	 27.032730	-11.140170	 6.938317	 11.429650	 9.163163	-5.192551	-17.850080	-104.272800	 2.427560	 92.827480	 29.370920	 56.851120	-1.665127	 14.612510	-0.327665	-11.342500	 18.715560	 12.130650	 67.476210	 3.878914	 55.221430	-2.227161	-8.734786	 61.284370	 9.026624	 6.625512	 34.667130	 0.047364	 4.122058	-10.393430	-3.318158	 2.999160	-8.973421	-12.902250	 106.081700	 25.225250	-97.983080	-27.032080	 45.628570	-5.917303	-23.153820	-0.566071	 11.224170	 12.432730	-12.708130	-13.930590	-4.803224	 12.579320	-0.588590	 14.045000	 36.256570	-8.778502	-8.487393	 29.390700	-1.598337
-0.096749	 1.240997	-0.054808	 6.003798	-5.394106	-167.835400	 176.189700	 28.978570	 21.946600	 11.553750	-36.954520	 13.165970	 13.559440	 80.229700	-20.025380	 1.148939	 26.511950	-2.654485	-176.398000	 9.658857	 8.106560	-2.187648	-26.740600	 11.238330	 8.258328	 75.011990	-10.471730	-1.788060	 34.544560	 2.947265	-4.096182	 6.567686	 25.647330	-10.677830	 6.325802	 10.830220	 9.083362	-4.836401	-17.221710	-104.471600	 2.496873	 92.782600	 24.008100	 58.612900	 1.578512	 15.256500	-0.351939	-11.551320	 17.525490	 10.781000	 65.436810	 3.773785	 54.474380	-2.141456	-8.551458	 60.484330	 8.776697	 6.598772	 34.098010	 0.050297	 4.119250	-9.959733	-3.101580	 2.522839	-8.669230	-11.778220	 106.958100	 24.475300	-97.983550	-18.515340	 46.510170	-10.104990	-25.948920	-0.659964	 11.395610	 10.913300	-13.293720	-14.594990	-4.628756	 11.944510	-0.497486	 13.892000	 35.284350	-8.480449	-8.500033	 28.213270	-1.515564
-0.092125	 1.240865	-0.052615	 5.159079	-4.938458	-169.893400	 176.804000	 27.961760	 19.747230	 11.373820	-36.529230	 12.927870	 12.770620	 79.946740	-19.207710	 1.149003	 26.512830	-2.654510	-176.582000	 9.544892	 6.407115	-2.218383	-27.062990	 11.239200	 9.707725	 76.001590	-11.703390	-1.694122	 33.442330	 2.899040	-3.648371	 6.494996	 24.398870	-10.573150	 5.989659	 10.604640	 9.069142	-4.600075	-16.529000	-104.731300	 2.696486	 92.770390	 19.038910	 59.288250	 6.469022	 16.665300	-0.414190	-11.743940	 15.945630	 9.392104	 65.648240	 3.575917	 52.857920	-1.980752	-8.219876	 58.893390	 8.312035	 6.539780	 32.826430	 0.055639	 4.112000	-9.633842	-2.870702	 2.179586	-8.289750	-10.536390	 107.874700	 23.581060	-97.971990	-11.731880	 46.661160	-14.325060	-28.149910	-0.731172	 11.568650	 14.025460	-12.415740	-9.987627	-4.302979	 10.819140	-0.318486	 13.613100	 33.365050	-7.911685	-8.519212	 25.862630	-1.353736
